<?xml version="1.0" standalone="no"?>
<!DOCTYPE svg PUBLIC "-//W3C//DTD SVG 20010904//EN"
 "http://www.w3.org/TR/2001/REC-SVG-20010904/DTD/svg10.dtd">
<svg version="1.0" xmlns="http://www.w3.org/2000/svg"
 width="1024.000000pt" height="1024.000000pt" viewBox="0 0 1024.000000 1024.000000"
 preserveAspectRatio="xMidYMid meet">

<g transform="translate(0.000000,1024.000000) scale(0.100000,-0.100000)"
fill="#000000" stroke="none">
<path d="M5039 8597 l-77 -82 71 -72 c39 -40 75 -73 80 -73 4 0 42 33 83 73
l75 73 -78 82 -78 82 -76 -83z"/>
<path d="M3960 8482 c-40 -41 -41 -83 -1 -123 40 -40 74 -38 118 6 31 31 35
40 29 68 -9 42 -34 66 -79 74 -31 5 -40 1 -67 -25z"/>
<path d="M6159 8481 c-20 -20 -29 -39 -29 -61 0 -37 47 -90 79 -90 36 0 70 22
86 56 14 29 14 37 1 68 -26 63 -89 75 -137 27z"/>
<path d="M4384 8431 c-63 -38 -68 -129 -11 -177 26 -22 38 -25 74 -21 76 8
115 67 94 138 -21 70 -95 98 -157 60z"/>
<path d="M5725 8417 c-30 -30 -35 -42 -35 -82 0 -100 105 -142 176 -71 28 28
34 42 34 75 0 56 -39 100 -97 108 -39 5 -46 2 -78 -30z"/>
<path d="M3571 8379 c-46 -18 -152 -112 -207 -183 -80 -101 -154 -256 -179
-373 -8 -40 0 -44 131 -78 269 -68 454 -53 454 36 0 38 -53 82 -161 131 -49
23 -89 45 -89 50 0 5 16 40 35 79 46 90 95 237 95 282 0 36 -21 68 -43 66 -7
0 -23 -5 -36 -10z"/>
<path d="M6599 8369 c-17 -17 -19 -28 -14 -62 11 -67 52 -181 96 -269 23 -45
37 -84 33 -85 -5 -2 -58 -29 -119 -61 -83 -43 -112 -63 -119 -83 -14 -41 0
-75 36 -90 41 -17 195 -17 293 0 90 16 234 56 248 70 21 21 -58 235 -126 340
-85 130 -231 260 -294 261 -7 0 -22 -9 -34 -21z"/>
<path d="M3874 8181 c-68 -29 -73 -150 -7 -180 42 -19 80 -13 115 18 28 25 33
36 32 71 -2 70 -76 118 -140 91z"/>
<path d="M6274 8181 c-52 -22 -73 -115 -36 -161 21 -26 87 -36 122 -18 82 43
61 171 -31 183 -19 3 -44 1 -55 -4z"/>
<path d="M3075 8131 c-79 -48 -189 -168 -248 -271 -55 -97 -89 -277 -68 -365
9 -37 8 -42 -23 -75 -18 -19 -42 -48 -54 -63 l-21 -28 -7 47 c-4 26 -4 108 -1
182 7 161 1 185 -45 180 -27 -2 -41 -14 -79 -65 -26 -34 -62 -99 -80 -145 -31
-79 -33 -90 -33 -218 -1 -103 3 -149 17 -196 l19 -60 -30 -35 c-17 -19 -39
-45 -50 -59 l-20 -25 -7 50 c-16 118 -48 281 -62 316 -24 61 -67 63 -102 6
-80 -130 -81 -400 -3 -571 l27 -58 -31 -64 c-17 -36 -34 -67 -37 -70 -3 -3
-11 14 -17 37 -26 106 -94 302 -112 324 -11 15 -30 25 -44 25 -31 0 -49 -40
-71 -154 -32 -167 2 -367 84 -503 l34 -57 -25 -60 c-13 -34 -31 -79 -39 -101
-17 -44 -16 -44 -41 55 -43 167 -114 330 -158 363 -27 20 -28 20 -48 2 -33
-30 -44 -90 -44 -250 0 -122 4 -167 22 -238 25 -101 100 -297 137 -361 23 -39
24 -50 19 -117 -5 -57 -2 -78 9 -94 15 -19 16 -19 92 19 118 61 275 167 326
223 82 88 102 153 54 175 -22 10 -38 6 -108 -22 -45 -18 -126 -55 -179 -82
-54 -26 -99 -48 -100 -48 -2 0 -2 26 0 58 l4 58 112 57 c157 81 230 130 308
209 69 69 85 99 74 143 -5 18 -13 25 -31 25 -27 0 -172 -56 -308 -118 l-87
-41 6 27 c4 15 11 37 15 50 5 13 9 34 9 48 0 17 6 24 19 24 68 0 358 136 448
211 96 79 127 147 74 164 -9 3 -95 -11 -191 -30 -95 -19 -179 -35 -187 -35 -9
0 -7 16 11 63 22 60 24 62 62 65 72 5 245 42 311 67 93 35 165 79 207 125 42
47 45 64 12 86 -23 14 -39 14 -209 -5 -101 -12 -186 -21 -190 -21 -4 0 8 24
28 52 19 29 35 57 35 63 0 6 35 11 82 12 178 5 331 47 452 123 112 71 148 137
89 162 -27 10 -284 -1 -355 -17 -37 -7 -35 3 12 63 22 27 40 54 40 58 0 5 78
9 173 10 176 0 279 16 379 58 34 15 78 58 78 78 0 28 -57 59 -179 98 -72 22
-132 46 -132 53 -2 24 3 55 32 189 33 155 36 200 13 222 -20 21 -32 20 -69 -3z"/>
<path d="M7098 8139 c-27 -15 -23 -90 12 -236 17 -69 30 -140 30 -159 0 -33 0
-33 -87 -59 -176 -53 -223 -78 -223 -119 0 -78 234 -141 502 -134 l118 2 45
-64 c24 -35 43 -65 42 -67 -2 -2 -26 1 -54 6 -28 6 -113 13 -190 17 -123 6
-141 5 -156 -10 -9 -10 -17 -27 -17 -38 0 -57 202 -182 345 -214 39 -8 123
-18 188 -21 64 -3 117 -9 117 -13 0 -5 16 -32 35 -60 20 -29 34 -55 31 -57 -2
-2 -42 1 -88 7 -191 23 -290 30 -309 20 -52 -28 8 -115 119 -173 111 -57 299
-107 406 -107 l41 0 22 -62 c12 -35 20 -64 18 -66 -1 -2 -87 13 -189 33 -149
29 -190 34 -201 25 -39 -32 3 -106 99 -175 77 -55 245 -135 360 -173 l83 -27
20 -67 c11 -38 16 -68 11 -68 -5 0 -30 11 -56 23 -94 47 -311 129 -333 125
-62 -9 -48 -69 34 -155 92 -96 125 -119 324 -222 107 -56 113 -63 113 -133 l0
-37 -67 33 c-104 51 -223 103 -270 117 -38 11 -45 10 -64 -7 -28 -26 -19 -64
32 -130 61 -79 227 -197 377 -268 81 -39 87 -33 87 82 0 69 4 95 21 127 39 72
111 268 130 350 24 100 27 397 6 457 -14 38 -37 53 -65 42 -34 -13 -109 -182
-162 -368 -14 -50 -27 -91 -29 -93 -2 -2 -20 40 -40 93 l-36 97 39 77 c61 116
85 215 85 340 1 110 -17 226 -41 273 -17 33 -62 38 -81 7 -26 -42 -88 -230
-117 -355 -6 -29 -7 -28 -46 41 l-39 70 30 70 c30 73 60 215 60 289 0 53 -23
175 -45 235 -29 83 -79 113 -110 67 -18 -27 -49 -173 -66 -307 -12 -91 -13
-93 -28 -70 -9 14 -31 41 -49 62 l-33 37 16 78 c10 43 17 125 17 183 1 87 -4
119 -25 185 -45 138 -120 245 -172 245 -42 0 -47 -27 -40 -203 4 -89 3 -172
-2 -184 -7 -20 -12 -17 -57 40 l-49 61 2 88 c4 195 -47 324 -193 485 -54 59
-138 123 -160 123 -6 0 -19 -5 -28 -11z"/>
<path d="M5209 8086 c-56 -20 -101 -51 -157 -108 -70 -72 -84 -92 -126 -176
-51 -101 -76 -213 -76 -342 0 -177 43 -297 185 -526 45 -73 91 -160 101 -194
11 -33 23 -60 27 -60 17 0 112 98 147 152 53 80 74 166 68 270 -6 98 -20 141
-100 307 -76 159 -101 251 -102 361 0 97 25 187 75 264 41 65 30 78 -42 52z"/>
<path d="M4492 7970 c-32 -13 -56 -70 -48 -113 14 -77 110 -104 167 -48 33 34
38 75 14 121 -24 47 -76 63 -133 40z"/>
<path d="M5643 7969 c-23 -12 -53 -65 -53 -94 0 -25 28 -73 49 -85 11 -5 36
-10 56 -10 81 0 126 103 72 165 -25 30 -88 42 -124 24z"/>
<path d="M4055 7650 l-79 -81 82 -82 82 -81 82 82 82 83 -79 79 c-44 44 -82
80 -85 80 -3 0 -41 -36 -85 -80z"/>
<path d="M6001 7648 l-83 -81 78 -78 c43 -44 82 -78 86 -77 4 2 42 38 86 80
l79 77 -80 81 c-44 44 -81 80 -81 80 -1 0 -39 -37 -85 -82z"/>
<path d="M3626 7331 l-109 -110 103 -108 c56 -59 107 -110 112 -112 5 -1 59
48 119 110 l110 113 -108 108 c-59 59 -110 108 -113 108 -3 0 -54 -49 -114
-109z"/>
<path d="M6304 7180 c-115 -116 -211 -215 -212 -221 -4 -10 343 -366 390 -400
18 -13 33 -17 43 -12 19 11 347 308 403 366 l43 44 -221 214 c-121 118 -225
215 -229 217 -5 2 -102 -92 -217 -208z m380 -149 l69 -69 -69 -66 c-38 -36
-71 -66 -74 -66 -3 0 -37 32 -75 71 l-70 70 70 64 c39 36 72 65 75 65 3 0 36
-31 74 -69z"/>
<path d="M3882 7077 l-112 -112 113 -113 114 -113 111 112 112 112 -107 111
c-60 61 -110 112 -113 114 -3 1 -56 -49 -118 -111z"/>
<path d="M3366 7071 l-109 -109 24 -29 c14 -15 64 -66 112 -113 l88 -84 90 89
c50 50 100 103 111 119 l21 28 -109 104 c-60 57 -111 103 -114 104 -3 0 -54
-49 -114 -109z"/>
<path d="M4689 7130 c-85 -69 -171 -216 -211 -357 -17 -61 -22 -105 -22 -203
0 -150 15 -217 79 -346 48 -98 142 -210 222 -266 l45 -30 -8 33 c-5 19 -9 72
-9 119 1 155 60 285 193 422 l65 67 -68 73 c-85 91 -172 223 -202 305 -13 35
-26 95 -29 134 -4 38 -10 72 -14 74 -4 2 -22 -9 -41 -25z"/>
<path d="M5548 7118 c14 -66 8 -240 -12 -298 -40 -120 -124 -224 -276 -345
-169 -134 -238 -214 -276 -323 -26 -75 -31 -174 -13 -247 11 -42 13 -44 58
-52 328 -56 651 172 742 524 48 189 10 460 -87 614 -36 59 -102 137 -125 150
-17 9 -18 7 -11 -23z"/>
<path d="M3621 6811 l-109 -108 110 -112 c60 -61 113 -111 117 -111 12 0 223
218 220 227 -6 12 -214 213 -222 213 -3 0 -55 -49 -116 -109z"/>
<path d="M3056 6744 c-35 -34 -8 -104 41 -104 22 0 63 39 63 61 0 49 -69 78
-104 43z"/>
<path d="M7086 6738 c-21 -29 -20 -40 5 -72 25 -31 61 -34 89 -6 41 41 13 100
-48 100 -21 0 -36 -7 -46 -22z"/>
<path d="M6656 6437 c-14 -10 -18 -27 -18 -66 0 -86 -3 -85 257 -89 l225 -4 0
-254 0 -254 80 0 80 0 0 65 0 65 98 0 c122 0 131 6 134 83 3 82 -9 90 -129 81
l-93 -7 -2 194 -3 194 -305 3 c-243 2 -310 0 -324 -11z"/>
<path d="M3075 6420 c-341 -54 -532 -433 -378 -750 37 -77 153 -192 232 -229
223 -105 505 -34 646 164 69 96 98 187 97 305 -1 284 -193 491 -477 513 -38 3
-92 2 -120 -3z m157 -274 c170 -51 232 -261 117 -399 -93 -112 -274 -116 -372
-7 -128 142 -69 355 113 411 40 12 93 10 142 -5z"/>
<path d="M6163 6315 c-59 -25 -72 -100 -27 -154 69 -83 209 12 160 108 -26 49
-81 68 -133 46z"/>
<path d="M3955 6295 c-57 -56 -12 -165 68 -165 43 0 92 38 100 77 7 35 -15 88
-41 102 -38 20 -101 13 -127 -14z"/>
<path d="M6657 6022 c-15 -16 -17 -50 -17 -263 0 -177 3 -248 12 -257 19 -19
761 -17 777 2 20 24 25 108 8 131 -15 19 -27 20 -323 20 l-308 0 3 167 c3 167
3 167 -23 193 -32 32 -103 35 -129 7z"/>
<path d="M1486 5937 c-29 -43 -41 -129 -40 -292 1 -129 5 -175 22 -236 48
-177 143 -312 315 -447 31 -25 57 -50 57 -56 0 -6 -8 -21 -18 -34 l-18 -23
-130 82 c-198 126 -246 141 -260 82 -14 -54 50 -170 145 -262 31 -29 107 -90
169 -134 62 -44 119 -89 127 -101 16 -22 20 -72 7 -80 -5 -3 -58 22 -118 56
-166 93 -231 121 -259 114 -57 -14 -39 -96 46 -209 66 -88 139 -146 296 -236
71 -41 129 -74 130 -75 1 -1 5 -25 9 -54 l7 -52 -94 44 c-142 67 -268 116
-300 116 -22 0 -30 -6 -35 -25 -10 -40 15 -85 86 -155 87 -87 121 -109 296
-190 l149 -69 12 -53 c6 -29 10 -54 9 -55 -2 -2 -25 6 -52 18 -90 39 -265 99
-289 99 -43 0 -55 -10 -55 -48 0 -68 94 -180 217 -258 100 -65 313 -144 386
-144 60 0 87 95 94 332 5 154 3 181 -11 203 -40 60 -100 11 -171 -137 -26 -54
-48 -98 -49 -98 -2 0 -18 33 -36 74 l-32 74 57 68 c32 37 75 94 96 127 68 105
100 254 63 291 -23 23 -39 20 -79 -16 -38 -33 -153 -176 -174 -215 -19 -37
-29 -27 -51 45 l-21 69 36 39 c72 77 166 210 187 264 11 30 23 80 26 111 4 48
1 60 -17 78 -11 11 -25 21 -30 21 -20 0 -98 -69 -177 -156 l-82 -91 -21 66
-21 67 118 120 c89 89 127 136 154 189 55 108 60 162 17 186 -31 16 -90 -25
-202 -140 -54 -56 -100 -95 -102 -88 -6 18 -35 134 -35 141 0 3 13 12 29 21
57 29 180 137 225 195 72 97 112 228 87 289 -28 66 -77 44 -226 -100 l-92 -89
-108 293 c-122 330 -157 412 -187 444 -27 29 -63 29 -82 0z"/>
<path d="M8672 5940 c-11 -11 -31 -41 -42 -67 -19 -43 -170 -444 -230 -610
l-22 -62 -106 99 c-58 55 -121 107 -139 115 -31 15 -36 15 -58 1 -33 -22 -39
-53 -25 -123 17 -82 51 -149 110 -215 56 -63 194 -178 214 -178 33 0 258 224
305 302 87 150 116 280 108 488 -4 80 -11 165 -17 190 -19 77 -56 99 -98 60z"/>
<path d="M3927 5622 c-49 -51 -23 -155 43 -169 l30 -5 0 -132 c0 -148 9 -194
48 -238 21 -23 39 -31 74 -35 46 -5 46 -6 98 -93 53 -89 121 -169 195 -228
l40 -31 -32 -1 c-22 0 -38 -9 -57 -31 -30 -36 -33 -69 -9 -110 26 -43 69 -59
161 -59 l80 0 12 -37 c18 -56 52 -96 104 -124 l46 -24 0 -1461 c0 -1241 2
-1463 14 -1473 9 -8 46 -11 103 -9 l88 3 5 1230 5 1230 100 0 c55 1 121 -1
148 -3 l47 -4 0 -1229 0 -1229 79 0 c44 0 91 4 105 10 l26 10 0 1454 c0 800 3
1461 6 1470 3 9 12 16 20 16 28 0 93 71 109 119 l16 48 95 5 c91 5 98 7 127
37 60 59 31 156 -49 163 l-33 3 57 45 c72 58 144 147 188 233 33 64 36 67 70
67 49 0 88 23 116 67 21 35 23 51 26 191 3 127 6 152 19 152 8 0 30 15 49 34
45 45 47 95 5 137 l-29 29 -1159 0 -1159 0 -27 -28z m2138 -277 l0 -100 -952
-3 -953 -2 0 98 c0 54 3 102 7 106 4 3 432 5 952 4 l946 -3 0 -100z m-201
-328 c-19 -61 -144 -200 -239 -266 l-75 -52 -435 -1 -436 -1 -56 39 c-81 55
-195 169 -237 236 -20 31 -36 59 -36 61 0 3 342 5 761 6 l760 0 -7 -22z m-596
-764 l2 -233 -150 0 -150 0 0 228 c0 126 2 231 5 234 3 2 69 4 147 4 l143 -1
3 -232z"/>
<path d="M2505 5401 c-47 -22 -97 -73 -115 -118 -7 -20 -11 -59 -8 -98 5 -79
41 -136 108 -173 38 -20 55 -23 112 -19 80 5 128 32 172 96 117 169 -81 399
-269 312z m156 -130 c38 -38 39 -87 4 -129 -69 -82 -199 -9 -165 94 23 70 108
88 161 35z"/>
<path d="M7549 5392 c-123 -64 -155 -220 -67 -326 41 -51 98 -77 163 -77 62 0
105 19 157 69 81 77 85 195 11 282 -71 83 -169 102 -264 52z m160 -109 c46
-38 43 -128 -5 -160 -65 -42 -154 5 -154 83 0 75 101 124 159 77z"/>
<path d="M3158 5205 c-52 -29 -56 -114 -8 -157 36 -33 72 -36 118 -8 57 35 66
104 17 150 -29 28 -91 35 -127 15z"/>
<path d="M6961 5206 c-91 -51 -50 -186 57 -186 36 0 71 25 87 64 37 87 -59
169 -144 122z"/>
<path d="M8718 5021 c-30 -15 -108 -63 -173 -105 -117 -76 -134 -81 -135 -38
0 6 -3 12 -7 12 -5 0 -16 -35 -26 -78 l-19 -78 -106 106 c-116 114 -168 148
-202 130 -76 -41 6 -210 188 -388 l105 -102 -18 -65 c-9 -36 -20 -65 -24 -65
-3 1 -26 26 -51 56 -58 72 -156 163 -188 175 -31 12 -58 -9 -67 -52 -8 -37 19
-142 52 -199 34 -59 124 -177 166 -218 l33 -32 -21 -66 c-12 -36 -24 -66 -27
-67 -4 -1 -29 30 -56 68 -71 101 -163 195 -189 195 -13 0 -30 -11 -39 -25 -43
-65 21 -234 147 -388 l72 -88 -28 -67 c-16 -37 -31 -71 -35 -75 -4 -5 -18 18
-30 50 -81 203 -176 270 -201 142 -22 -114 -2 -361 37 -459 15 -38 19 -40 58
-40 58 0 268 73 349 121 92 55 200 158 231 222 31 61 32 78 7 101 -19 17 -23
17 -77 1 -32 -9 -113 -39 -181 -66 -68 -27 -126 -49 -129 -49 -3 0 -2 10 2 23
4 12 10 37 13 55 6 32 12 36 146 97 76 35 173 85 213 112 116 75 201 185 187
240 -5 23 -10 25 -48 21 -40 -5 -305 -112 -355 -145 -13 -8 -25 -13 -27 -11
-1 2 -1 26 2 53 l5 50 133 73 c73 40 154 92 181 114 145 119 237 294 173 329
-18 9 -39 2 -143 -50 -66 -33 -149 -77 -184 -97 l-63 -36 3 53 3 54 110 74
c139 94 260 213 303 300 33 67 41 118 20 139 -17 17 -30 15 -90 -17z"/>
<path d="M6790 4821 l0 -89 36 -7 c20 -3 64 -5 98 -4 l61 3 3 -87 3 -86 102
-3 102 -3 3 -72 3 -73 273 0 c242 0 275 2 287 17 19 23 19 121 -1 133 -8 6
-131 10 -282 10 l-268 0 0 90 0 90 -100 0 -100 0 0 85 0 85 -110 0 -110 0 0
-89z"/>
<path d="M3719 4871 c-33 -33 -38 -75 -14 -120 16 -33 33 -41 80 -41 41 0 91
39 98 76 18 94 -96 152 -164 85z"/>
<path d="M6366 4869 c-36 -43 -35 -91 3 -130 49 -49 126 -35 156 28 32 67 -12
133 -89 133 -37 0 -48 -5 -70 -31z"/>
<path d="M2500 4793 c-43 -18 -54 -89 -20 -123 17 -17 33 -20 111 -20 l90 0
-3 -37 -3 -38 -86 0 c-71 0 -91 -3 -108 -19 -25 -23 -28 -72 -5 -104 l15 -22
475 0 474 0 0 180 0 180 -367 0 c-203 0 -411 2 -463 5 -52 3 -102 2 -110 -2z
m768 -180 l-3 -38 -210 1 -210 1 -3 37 -3 36 216 0 216 0 -3 -37z"/>
<path d="M4010 4483 c-42 -15 -54 -79 -20 -113 43 -43 110 -10 110 54 0 18 -6
38 -13 44 -16 14 -58 22 -77 15z"/>
<path d="M6150 4470 c-40 -40 -12 -120 43 -120 41 0 67 27 67 70 0 29 -6 43
-22 54 -31 22 -64 20 -88 -4z"/>
<path d="M6580 4390 l0 -100 100 0 99 0 3 -87 3 -88 102 -3 102 -3 3 -82 3
-82 232 -3 c222 -2 234 -1 253 18 15 15 20 33 20 69 0 80 -4 81 -267 81 l-223
0 -2 63 c-1 34 -2 78 -2 97 l-1 35 -107 3 -108 3 0 89 0 90 -105 0 -105 0 0
-100z"/>
<path d="M2687 4363 c-4 -3 -7 -82 -7 -175 l0 -168 26 -10 c16 -6 163 -9 377
-8 l352 3 3 73 3 72 -301 0 -300 0 0 35 0 35 383 0 c372 0 384 1 405 20 26 25
29 75 6 108 l-15 22 -463 0 c-254 0 -466 -3 -469 -7z"/>
<path d="M4320 4290 c-41 -41 -14 -110 42 -110 55 0 81 83 36 114 -30 21 -54
20 -78 -4z"/>
<path d="M5825 4285 c-30 -29 -32 -58 -5 -85 27 -27 62 -25 88 3 34 36 28 73
-15 96 -31 16 -41 14 -68 -14z"/>
<path d="M6185 4046 c-123 -30 -232 -100 -315 -202 -90 -111 -130 -227 -130
-377 0 -177 78 -336 217 -447 178 -141 408 -165 622 -64 92 43 210 158 259
251 122 233 82 501 -103 688 -77 78 -178 134 -273 154 -69 14 -213 13 -277 -3z
m208 -156 c192 -31 347 -203 347 -385 l0 -51 -113 -37 c-62 -20 -119 -37 -127
-36 -8 0 -60 61 -115 135 -55 74 -103 134 -107 134 -8 0 -279 -85 -332 -105
l-38 -14 6 40 c10 60 61 155 111 203 74 72 182 119 290 125 11 0 46 -3 78 -9z
m-83 -537 c52 -69 100 -133 105 -140 8 -11 35 -5 143 31 80 27 132 39 132 32
0 -21 -76 -106 -125 -142 -148 -105 -365 -95 -509 21 -56 46 -108 120 -132
187 -16 46 -26 39 156 95 63 19 117 36 119 39 10 10 22 -3 111 -123z"/>
<path d="M3779 3967 c-36 -12 -77 -30 -92 -40 l-27 -17 64 -93 c35 -50 75
-113 90 -139 l28 -47 71 36 c135 67 346 218 330 234 -17 17 -133 69 -174 78
-80 19 -217 13 -290 -12z"/>
<path d="M3541 3803 c-73 -85 -137 -245 -129 -326 l3 -33 135 57 c74 32 157
67 183 78 l49 21 -23 37 c-43 71 -153 213 -165 213 -7 0 -31 -21 -53 -47z"/>
<path d="M4279 3814 c-61 -52 -147 -113 -184 -131 -20 -9 -34 -22 -33 -28 6
-22 112 -205 119 -205 4 0 34 18 68 41 l62 41 37 -25 c20 -14 55 -35 77 -46
49 -26 51 -21 36 82 -12 79 -69 208 -118 266 l-29 34 -35 -29z"/>
<path d="M2963 3675 c-67 -29 -82 -131 -26 -175 32 -25 99 -27 129 -2 52 41
58 106 17 151 -34 36 -77 45 -120 26z"/>
<path d="M7208 3682 c-15 -2 -39 -17 -53 -33 -35 -42 -34 -97 2 -139 25 -30
30 -32 75 -28 58 6 95 36 104 83 6 32 -14 86 -36 100 -20 12 -65 21 -92 17z"/>
<path d="M3925 3584 c-33 -18 -91 -46 -130 -61 -38 -15 -73 -29 -77 -33 -6 -5
109 -200 132 -224 4 -4 28 5 52 21 23 17 78 49 121 73 43 23 81 48 84 55 4 13
-105 206 -116 204 -3 0 -33 -16 -66 -35z"/>
<path d="M2539 3474 c-17 -37 -21 -75 -26 -210 -3 -90 -9 -164 -12 -164 -12 1
-68 56 -105 103 -20 26 -42 47 -47 47 -16 0 -9 -30 16 -68 14 -20 25 -39 25
-43 0 -6 -64 8 -310 66 -121 29 -153 31 -170 10 -22 -27 -1 -68 74 -141 121
-118 285 -185 489 -200 96 -7 96 -7 126 -45 17 -21 31 -40 31 -43 0 -3 -81 -6
-179 -6 -99 0 -191 -4 -205 -10 -58 -22 -12 -101 86 -148 85 -41 165 -55 314
-56 124 0 146 3 184 22 24 12 45 20 45 19 1 -1 18 -30 38 -64 l35 -61 -71 -6
c-40 -3 -124 -10 -188 -15 -64 -5 -126 -14 -138 -20 -30 -16 -27 -57 7 -90 89
-89 379 -109 581 -40 30 11 57 19 60 19 8 0 84 -101 79 -104 -2 -2 -66 -15
-143 -30 -197 -38 -242 -52 -261 -81 -15 -23 -15 -27 0 -50 66 -100 391 -116
620 -31 55 21 61 26 64 54 5 51 30 48 83 -10 26 -29 48 -56 49 -60 0 -3 -76
-36 -169 -73 -180 -72 -215 -95 -209 -140 5 -46 44 -66 141 -72 133 -9 273 25
427 102 71 36 93 56 109 98 6 15 14 27 18 26 16 -2 95 -98 88 -109 -3 -5 -25
-20 -48 -31 -63 -32 -201 -124 -225 -150 -28 -29 -28 -61 -1 -85 18 -16 36
-19 108 -18 153 2 276 45 469 161 92 56 142 101 142 129 0 8 -11 26 -24 39
-22 22 -50 29 -140 37 -25 3 -38 17 -95 110 -123 200 -250 342 -300 336 -44
-5 -57 -44 -43 -130 7 -40 21 -102 32 -137 11 -35 18 -66 16 -68 -2 -2 -27 8
-55 22 -37 20 -53 35 -57 54 -44 201 -190 441 -269 441 -55 0 -64 -62 -35
-228 12 -68 20 -125 18 -127 -2 -2 -24 9 -49 25 -45 28 -46 30 -53 92 -15 142
-79 331 -150 441 -92 144 -146 41 -132 -250 4 -73 4 -133 0 -133 -3 0 -27 18
-52 41 l-46 40 2 162 c3 176 -5 226 -55 347 -38 91 -73 149 -106 174 l-29 21
-23 -27 c-21 -24 -24 -40 -29 -160 -4 -73 -3 -168 2 -210 4 -43 6 -78 4 -78
-8 0 -102 74 -102 80 -5 334 -8 377 -34 475 -28 105 -81 228 -110 258 -10 9
-29 17 -42 17 -20 0 -29 -9 -45 -46z"/>
<path d="M7590 3473 c-83 -131 -136 -402 -122 -627 5 -86 7 -81 -78 -145 l-25
-19 4 209 c3 180 1 213 -13 234 -19 29 -56 33 -78 8 -26 -32 -74 -117 -96
-173 -47 -120 -56 -178 -57 -346 l0 -162 -44 -36 c-23 -20 -46 -36 -50 -36 -3
0 -5 82 -2 181 4 195 -5 253 -39 264 -11 3 -28 1 -39 -4 -34 -18 -106 -151
-146 -266 -22 -66 -55 -221 -55 -263 0 -28 -7 -37 -47 -62 -26 -16 -48 -28
-50 -26 -2 2 6 59 17 127 25 157 25 191 0 214 -26 24 -61 14 -106 -33 -79 -81
-152 -214 -185 -340 l-22 -81 -57 -28 c-32 -16 -56 -24 -54 -18 29 90 55 191
60 235 5 46 3 59 -13 79 -16 19 -25 23 -48 17 -53 -13 -196 -185 -311 -374
l-41 -67 -73 -7 c-59 -5 -77 -11 -98 -31 -30 -30 -25 -64 15 -101 38 -35 224
-144 301 -177 167 -69 361 -78 393 -17 25 46 -27 97 -196 193 -27 16 -62 37
-77 47 l-27 19 46 49 c36 38 50 47 60 39 7 -7 13 -17 13 -23 0 -24 57 -66 145
-107 128 -59 197 -79 300 -86 158 -10 243 22 233 89 -4 32 -46 57 -220 127
-84 35 -155 65 -157 67 -8 7 85 104 100 104 10 0 19 -11 22 -28 7 -36 48 -55
181 -87 221 -54 474 -19 515 72 11 25 10 30 -13 49 -27 24 -138 53 -295 78
-52 9 -96 18 -99 20 -7 8 37 74 60 90 17 12 27 12 73 -4 142 -49 375 -53 494
-9 81 30 124 68 119 106 -4 39 -40 48 -242 61 -92 6 -170 13 -173 15 -5 6 55
115 69 123 5 3 18 -2 28 -11 49 -45 342 -40 468 7 117 44 184 111 155 157 -9
14 -40 16 -211 19 l-201 2 30 44 31 43 99 7 c124 9 226 34 319 80 160 80 262
182 248 253 -6 31 -54 26 -272 -27 -114 -28 -210 -50 -212 -48 -1 2 11 25 28
51 24 37 28 51 19 60 -9 9 -18 4 -39 -23 -47 -62 -114 -130 -122 -125 -5 3 -6
38 -3 78 5 90 -12 266 -31 312 -13 29 -20 35 -46 35 -25 0 -35 -8 -60 -47z"/>
<path d="M3627 3454 c-3 -4 -50 -26 -104 -49 l-98 -42 2 -38 c3 -49 62 -169
111 -224 l39 -45 29 27 c16 15 55 47 88 70 108 78 103 62 48 147 -26 41 -59
94 -72 118 -24 42 -31 48 -43 36z"/>
<path d="M4255 3407 c-28 -19 -80 -51 -118 -71 l-67 -38 32 -45 c18 -25 65
-79 104 -121 l72 -77 42 40 c55 53 96 119 121 194 12 34 20 63 18 65 -17 11
-146 86 -150 86 -2 0 -27 -15 -54 -33z"/>
<path d="M3870 3176 c-69 -45 -147 -103 -175 -129 -49 -44 -49 -46 -30 -61 34
-26 126 -58 203 -69 61 -9 88 -8 152 5 76 16 200 64 200 77 0 4 -16 23 -36 42
-19 18 -68 76 -107 127 -39 50 -74 92 -77 92 -3 -1 -61 -38 -130 -84z"/>
<path d="M4263 2689 c-40 -39 -73 -73 -73 -75 0 -9 135 -144 144 -144 6 0 43
32 83 72 l72 71 -71 74 c-40 40 -74 73 -77 73 -3 0 -39 -32 -78 -71z"/>
<path d="M5808 2686 l-68 -73 68 -71 c37 -40 70 -72 74 -72 4 0 39 32 78 72
l71 72 -73 73 c-40 40 -75 73 -78 72 -3 0 -35 -33 -72 -73z"/>
<path d="M4413 2233 c-72 -14 -99 -119 -44 -174 64 -64 171 -20 171 70 0 67
-60 116 -127 104z"/>
<path d="M5773 2233 c-57 -11 -93 -89 -68 -150 26 -61 110 -74 164 -24 41 38
44 104 6 145 -13 14 -31 26 -39 26 -8 0 -20 2 -28 4 -7 2 -23 1 -35 -1z"/>
<path d="M4393 1619 c-101 -65 -28 -221 82 -175 41 18 65 52 65 94 0 46 -16
71 -55 88 -45 18 -54 18 -92 -7z"/>
<path d="M5724 1607 c-21 -19 -26 -31 -26 -67 1 -64 27 -94 86 -98 40 -3 50 1
76 27 22 22 30 39 30 66 0 81 -103 126 -166 72z"/>
</g>
</svg>
